<svg xmlns="http://www.w3.org/2000/svg" xmlns:xlink="http://www.w3.org/1999/xlink" width="1366" zoomAndPan="magnify" viewBox="0 0 1024.5 388.499989" height="768" preserveAspectRatio="xMidYMid meet" version="1.0"><defs><g/><clipPath id="bbc3e6eae8"><path d="M 0.410156 0 L 388.410156 0 L 388.410156 388 L 0.410156 388 Z M 0.410156 0 " clip-rule="nonzero"/></clipPath></defs><g clip-path="url(#bbc3e6eae8)"><path fill="#e15c31" d="M 388.410156 13.855469 C 388.410156 6.207031 382.203125 0 374.550781 0 L 14.265625 0 C 6.617188 0 0.410156 6.207031 0.410156 13.855469 L 0.410156 374.144531 C 0.410156 381.792969 6.617188 388 14.265625 388 L 374.550781 388 C 382.203125 388 388.410156 381.792969 388.410156 374.144531 Z M 208.265625 332.570312 L 208.265625 55.429688 C 208.265625 47.78125 202.058594 41.570312 194.410156 41.570312 C 186.761719 41.570312 180.550781 47.78125 180.550781 55.429688 L 180.550781 332.570312 C 180.550781 340.222656 186.761719 346.429688 194.410156 346.429688 C 202.058594 346.429688 208.265625 340.222656 208.265625 332.570312 Z M 166.695312 279.277344 L 166.695312 108.722656 C 166.695312 101.074219 160.488281 94.867188 152.835938 94.867188 C 145.1875 94.867188 138.980469 101.074219 138.980469 108.722656 L 138.980469 279.277344 C 138.980469 286.925781 145.1875 293.132812 152.835938 293.132812 C 160.488281 293.132812 166.695312 286.925781 166.695312 279.277344 Z M 249.835938 279.277344 L 249.835938 108.722656 C 249.835938 101.074219 243.628906 94.867188 235.980469 94.867188 C 228.332031 94.867188 222.125 101.074219 222.125 108.722656 L 222.125 279.277344 C 222.125 286.925781 228.332031 293.132812 235.980469 293.132812 C 243.628906 293.132812 249.835938 286.925781 249.835938 279.277344 Z M 291.410156 247.296875 L 291.410156 140.707031 C 291.410156 133.054688 285.203125 126.847656 277.550781 126.847656 C 269.902344 126.847656 263.695312 133.054688 263.695312 140.707031 L 263.695312 247.296875 C 263.695312 254.945312 269.902344 261.152344 277.550781 261.152344 C 285.203125 261.152344 291.410156 254.945312 291.410156 247.296875 Z M 125.125 247.296875 L 125.125 140.707031 C 125.125 133.054688 118.914062 126.847656 111.265625 126.847656 C 103.617188 126.847656 97.410156 133.054688 97.410156 140.707031 L 97.410156 247.296875 C 97.410156 254.945312 103.617188 261.152344 111.265625 261.152344 C 118.914062 261.152344 125.125 254.945312 125.125 247.296875 Z M 83.550781 225.984375 L 83.550781 162.019531 C 83.550781 154.367188 77.34375 148.160156 69.695312 148.160156 C 62.046875 148.160156 55.835938 154.367188 55.835938 162.019531 L 55.835938 225.984375 C 55.835938 233.632812 62.046875 239.839844 69.695312 239.839844 C 77.34375 239.839844 83.550781 233.632812 83.550781 225.984375 Z M 332.980469 225.984375 L 332.980469 162.019531 C 332.980469 154.367188 326.773438 148.160156 319.125 148.160156 C 311.472656 148.160156 305.265625 154.367188 305.265625 162.019531 L 305.265625 225.984375 C 305.265625 233.632812 311.472656 239.839844 319.125 239.839844 C 326.773438 239.839844 332.980469 233.632812 332.980469 225.984375 Z M 332.980469 225.984375 " fill-opacity="1" fill-rule="evenodd"/></g><g fill="#000000" fill-opacity="1"><g transform="translate(432.630702, 269.507424)"><g><path d="M 44.734375 0 L 18.671875 0 L 18.671875 -143.734375 L 55.84375 -143.734375 L 92.21875 -38.046875 L 94.28125 -38.046875 L 130.453125 -143.734375 L 166.734375 -143.734375 L 166.734375 0 L 139.796875 0 L 139.796875 -94.96875 L 137.34375 -95.359375 L 104.109375 0 L 80.421875 0 L 47.1875 -95.359375 L 44.734375 -94.96875 Z M 44.734375 0 "/></g></g></g><g fill="#000000" fill-opacity="1"><g transform="translate(618.135957, 269.507424)"><g><path d="M 107.15625 -48.078125 L 37.453125 -48.078125 C 38.242188 -38.640625 40.929688 -31.769531 45.515625 -27.46875 C 50.109375 -23.175781 56.367188 -21.03125 64.296875 -21.03125 C 70.523438 -21.03125 75.570312 -22.191406 79.4375 -24.515625 C 83.300781 -26.847656 86.414062 -30.375 88.78125 -35.09375 L 90.84375 -35.09375 L 108.9375 -23.5 C 105.394531 -15.894531 100.050781 -9.734375 92.90625 -5.015625 C 85.757812 -0.296875 76.222656 2.0625 64.296875 2.0625 C 53.085938 2.0625 43.398438 -0.0664062 35.234375 -4.328125 C 27.078125 -8.585938 20.785156 -14.925781 16.359375 -23.34375 C 11.941406 -31.769531 9.734375 -42.046875 9.734375 -54.171875 C 9.734375 -66.492188 12.054688 -76.878906 16.703125 -85.328125 C 21.359375 -93.785156 27.648438 -100.09375 35.578125 -104.25 C 43.515625 -108.414062 52.429688 -110.5 62.328125 -110.5 C 77.660156 -110.5 89.40625 -106.4375 97.5625 -98.3125 C 105.726562 -90.1875 109.8125 -78.257812 109.8125 -62.53125 C 109.8125 -56.820312 109.613281 -52.394531 109.21875 -49.25 Z M 83.765625 -65.671875 C 83.503906 -73.929688 81.585938 -79.941406 78.015625 -83.703125 C 74.441406 -87.472656 69.210938 -89.359375 62.328125 -89.359375 C 48.566406 -89.359375 40.472656 -81.460938 38.046875 -65.671875 Z M 83.765625 -65.671875 "/></g></g></g><g fill="#000000" fill-opacity="1"><g transform="translate(736.006025, 269.507424)"><g><path d="M 15.625 0 L 15.625 -108.4375 L 41.78125 -108.4375 L 41.78125 -93.890625 L 43.84375 -93.5 C 47.382812 -99.332031 51.53125 -103.625 56.28125 -106.375 C 61.03125 -109.125 67.109375 -110.5 74.515625 -110.5 C 82.710938 -110.5 89.300781 -108.875 94.28125 -105.625 C 99.257812 -102.382812 102.894531 -97.65625 105.1875 -91.4375 L 107.265625 -91.4375 C 110.597656 -97.914062 114.898438 -102.710938 120.171875 -105.828125 C 125.453125 -108.941406 132.03125 -110.5 139.90625 -110.5 C 162.382812 -110.5 173.625 -97.984375 173.625 -72.953125 L 173.625 0 L 146.390625 0 L 146.390625 -69.5 C 146.390625 -75.863281 145.144531 -80.453125 142.65625 -83.265625 C 140.164062 -86.085938 136.164062 -87.5 130.65625 -87.5 C 115.707031 -87.5 108.234375 -77.503906 108.234375 -57.515625 L 108.234375 0 L 81.015625 0 L 81.015625 -69.5 C 81.015625 -75.863281 79.75 -80.453125 77.21875 -83.265625 C 74.695312 -86.085938 70.6875 -87.5 65.1875 -87.5 C 58.164062 -87.5 52.6875 -85.15625 48.75 -80.46875 C 44.820312 -75.78125 42.859375 -68.328125 42.859375 -58.109375 L 42.859375 0 Z M 15.625 0 "/></g></g></g><g fill="#000000" fill-opacity="1"><g transform="translate(923.575697, 269.507424)"><g><path d="M 50.734375 2.0625 C 43.328125 2.0625 36.539062 1.195312 30.375 -0.53125 C 24.21875 -2.269531 18.957031 -4.660156 14.59375 -7.703125 C 10.238281 -10.753906 7.015625 -14.25 4.921875 -18.1875 L 20.0625 -34.5 L 22.125 -34.5 C 25.726562 -29.65625 29.988281 -26.019531 34.90625 -23.59375 C 39.820312 -21.164062 45.160156 -19.953125 50.921875 -19.953125 C 56.234375 -19.953125 60.234375 -20.898438 62.921875 -22.796875 C 65.609375 -24.703125 66.953125 -27.425781 66.953125 -30.96875 C 66.953125 -33.71875 65.984375 -36.023438 64.046875 -37.890625 C 62.117188 -39.765625 58.988281 -41.226562 54.65625 -42.28125 L 40.3125 -45.71875 C 29.5625 -48.269531 21.710938 -52.179688 16.765625 -57.453125 C 11.816406 -62.734375 9.34375 -69.4375 9.34375 -77.5625 C 9.34375 -84.3125 11.0625 -90.175781 14.5 -95.15625 C 17.9375 -100.144531 22.785156 -103.945312 29.046875 -106.5625 C 35.304688 -109.1875 42.597656 -110.5 50.921875 -110.5 C 60.691406 -110.5 68.785156 -109.085938 75.203125 -106.265625 C 81.628906 -103.453125 86.644531 -99.6875 90.25 -94.96875 L 75.703125 -79.234375 L 73.734375 -79.234375 C 70.722656 -82.648438 67.332031 -85.144531 63.5625 -86.71875 C 59.789062 -88.289062 55.578125 -89.078125 50.921875 -89.078125 C 40.171875 -89.078125 34.796875 -85.734375 34.796875 -79.046875 C 34.796875 -76.222656 35.796875 -73.925781 37.796875 -72.15625 C 39.796875 -70.382812 43.320312 -68.941406 48.375 -67.828125 L 61.734375 -64.890625 C 72.742188 -62.523438 80.789062 -58.738281 85.875 -53.53125 C 90.957031 -48.320312 93.5 -41.328125 93.5 -32.546875 C 93.5 -25.660156 91.789062 -19.59375 88.375 -14.34375 C 84.96875 -9.101562 80.050781 -5.054688 73.625 -2.203125 C 67.207031 0.640625 59.578125 2.0625 50.734375 2.0625 Z M 50.734375 2.0625 "/></g></g></g></svg>